<?xml version="1.0" encoding="utf-8"?>
<!-- Generator: Adobe Illustrator 26.5.0, SVG Export Plug-In . SVG Version: 6.00 Build 0)  -->
<svg version="1.1" id="logo1" xmlns="http://www.w3.org/2000/svg" xmlns:xlink="http://www.w3.org/1999/xlink" x="0px" y="0px"
	 viewBox="0 0 1016.3 241.8" style="enable-background:new 0 0 1016.3 241.8;" xml:space="preserve">
<style type="text/css">
	.st0{fill:#FFFFFF;}
	.st1{fill:#FFCC01;}
</style>
<path class="st0" d="M353.8,92.8h24.9v91.9c0,15-10.4,24.2-26,24.2h-31.5c-15.6,0-26-9.1-26-24.2V92.8h25.2v88.8
	c0,2.2,1.7,3.9,3.9,3.9h25.6c2.2,0,3.9-1.7,3.9-3.9L353.8,92.8L353.8,92.8z M389.4,183.5h24.9v25.2h-24.9V183.5z M425.2,132.4v-18.3
	c0-12.2,8.8-21.4,22.6-21.4h36.6c13.8,0,22.6,9.1,22.6,21.4v17h-24v-12.4c0-2.2-1.7-3.9-3.9-3.9h-25.9c-2.2,0-3.9,1.7-3.9,3.9V130
	c0,1.7,0.9,3.2,3.6,4l38,11.1c11.9,3.6,16,9.8,16,22.8v19.5c0,12.1-9.1,21.4-22.8,21.4h-36.6c-13.6,0-22.5-9.3-22.5-21.4v-18.8h24
	v14.1c0,2.2,1.7,3.9,3.9,3.9h25.9c2.2,0,3.9-1.7,3.9-3.9v-12.4c0-1.9-1.2-3.4-3.6-4l-38-11.1C429.2,151.7,425.2,145.5,425.2,132.4
	L425.2,132.4z M517.8,183.5h24.9v25.2h-24.9V183.5z M648.6,189.3h-40.9l-5.4,19.5h-26l34.7-116h36.2l33.3,116H654L648.6,189.3z
	 M642.5,167.3l-14.2-52.2l-14.6,52.2H642.5z M767.2,160.8l-6.3,5.3l20.8,42.8h-28L735.3,169h-16.9v39.8h-25.2v-116h58.6
	c14.6,0,24.5,8.8,24.5,22.2v22.6C776.2,149,775.1,154.3,767.2,160.8L767.2,160.8z M751,143.1v-23.4c0-2.2-1.7-3.9-3.9-3.9h-28.7V147
	h28.7C749.3,147,751,145.3,751,143.1L751,143.1z M867.9,92.8h32.7v116h-24.2v-73l-25.2,73h-7.3L818.8,136v72.8h-23.2v-116h32.7
	l20,63.4L867.9,92.8L867.9,92.8z M1014.3,92.8l-39.2,71.7v44.3h-25.2v-44.1l-38.1-71.9h29.6l22.3,45.2l22.2-45.2L1014.3,92.8
	L1014.3,92.8z"/>
<path class="st1" d="M252,92.8h-95.5L127,2L97.5,92.8H2L79.3,149l-29.5,90.8l77.3-56.1l77.3,56.1L174.8,149L252,92.8L252,92.8z
	 M127,155.8l-34.4,25l13.1-40.4l-34.4-25h42.5L127,75l13.1,40.4h42.5l-34.4,25l13.1,40.4L127,155.8L127,155.8z"/>
</svg>
